#pragma once

// -------------------------------------------------
// Copyright (c) 2022 HiBit <https://www.hibit.dev>
// -------------------------------------------------

#include "pitches.h"

int the_lion_sleeps_tonight_melody[] = {
  NOTE_F4, NOTE_G4, NOTE_A4, NOTE_G4, NOTE_A4,
  NOTE_AS4, NOTE_A4, NOTE_G4, NOTE_F4, NOTE_G4,
  NOTE_A4, NOTE_C4, NOTE_C4, NOTE_C4, NOTE_C4,
  NOTE_C4,
  
  NOTE_F4, NOTE_G4, NOTE_A4, NOTE_G4, NOTE_A4,
  NOTE_AS4, NOTE_A4, NOTE_G4, NOTE_F4, NOTE_G4,
  NOTE_A4, NOTE_C4, NOTE_C4, NOTE_C4, NOTE_C4,
  NOTE_C4,  REST, NOTE_A4,
  
  NOTE_A4, NOTE_A4, NOTE_A4, NOTE_A4, NOTE_A4, NOTE_A4, NOTE_A4, NOTE_A4,
  NOTE_AS4, NOTE_AS4, NOTE_AS4, NOTE_AS4, NOTE_AS4, NOTE_AS4, NOTE_AS4, NOTE_AS4,
  NOTE_A4, NOTE_A4, NOTE_A4, NOTE_A4, NOTE_A4, NOTE_A4, NOTE_A4, NOTE_A4,
  NOTE_G4, NOTE_G4, NOTE_G4, NOTE_G4, NOTE_G4, NOTE_G4, NOTE_G4, NOTE_G4,
  
  NOTE_A4, NOTE_A4, NOTE_A4, NOTE_A4, NOTE_A4, NOTE_A4, NOTE_A4, NOTE_A4,
  NOTE_AS4, NOTE_AS4, NOTE_AS4, NOTE_AS4, NOTE_AS4, NOTE_AS4, NOTE_AS4, NOTE_AS4,
  NOTE_A4, NOTE_A4, NOTE_A4, NOTE_A4, NOTE_A4, NOTE_A4, NOTE_A4, NOTE_A4,
  NOTE_G4, NOTE_G4, NOTE_G4, NOTE_G4, NOTE_G4, NOTE_G4, NOTE_G4, NOTE_G4,
  
  NOTE_F4, NOTE_G4, NOTE_A4, NOTE_G4, NOTE_A4,
  NOTE_AS4, NOTE_A4, NOTE_G4, NOTE_F4, NOTE_G4,
  NOTE_A4, NOTE_G4, NOTE_F4, NOTE_A4,
  NOTE_G4,
  NOTE_C5, NOTE_A4, NOTE_G4, NOTE_A4, NOTE_C5,
  NOTE_AS4, NOTE_A4, NOTE_G4, NOTE_F4, NOTE_G4,
  NOTE_A4, NOTE_G4, NOTE_F4, NOTE_A4,
  NOTE_G4,
  
  NOTE_C5,
  NOTE_C5, NOTE_AS4, NOTE_C5, NOTE_AS4,
  NOTE_A4, NOTE_C4, NOTE_C4, NOTE_C4, NOTE_C4,
  NOTE_C4,
  
  REST, NOTE_A4, NOTE_G4, NOTE_F4, NOTE_E4, NOTE_D4, NOTE_C4, 
  NOTE_D4,
  REST, NOTE_A4, NOTE_G4, NOTE_F4, NOTE_E4, NOTE_D4, NOTE_C4, 
  NOTE_D4,
  
  NOTE_F4, NOTE_G4, NOTE_A4, NOTE_G4, NOTE_A4,
  NOTE_AS4, NOTE_A4, NOTE_G4, NOTE_F4, NOTE_G4,
  NOTE_A4, NOTE_G4, NOTE_F4, NOTE_A4,
  NOTE_G4,
  NOTE_C5, NOTE_A4, NOTE_G4, NOTE_A4, NOTE_C5,
  NOTE_AS4, NOTE_A4, NOTE_G4, NOTE_F4, NOTE_G4,
  NOTE_A4, NOTE_G4, NOTE_F4, NOTE_A4,
  NOTE_G4,
  
  NOTE_C5,
  NOTE_C5, NOTE_AS4, NOTE_C5, NOTE_AS4,
  NOTE_A4, NOTE_C4, NOTE_C4, NOTE_C4, NOTE_C4,
  NOTE_C4,
  
  REST, NOTE_A4, NOTE_G4, NOTE_F4, NOTE_E4, NOTE_D4, NOTE_C4, 
  NOTE_D4,
  REST, NOTE_A4, NOTE_G4, NOTE_F4, NOTE_E4, NOTE_D4, NOTE_C4, 
  NOTE_D4,
  
  NOTE_F4, NOTE_G4, NOTE_A4, NOTE_G4, NOTE_A4,
  NOTE_AS4, NOTE_A4, NOTE_G4, NOTE_F4, NOTE_G4,
  NOTE_A4, NOTE_C4, NOTE_C4, NOTE_C4, NOTE_C4,
  NOTE_C4, 
  
  NOTE_F4, NOTE_G4, NOTE_A4, NOTE_G4, NOTE_A4,
  NOTE_AS4, NOTE_A4, NOTE_G4, NOTE_F4, NOTE_G4,
  NOTE_A4, NOTE_G4, NOTE_F4, NOTE_A4,
  NOTE_G4,
  NOTE_C5, NOTE_A4, NOTE_G4, NOTE_A4, NOTE_C5,
  NOTE_AS4, NOTE_A4, NOTE_G4, NOTE_F4, NOTE_G4,
  NOTE_A4, NOTE_G4, NOTE_F4, NOTE_A4,
  NOTE_G4,
  
  NOTE_C5,
  NOTE_C5, NOTE_AS4, NOTE_C5, NOTE_AS4,
  NOTE_A4, NOTE_C4, NOTE_C4, NOTE_C4, NOTE_C4,
  NOTE_C4,
  
  REST, NOTE_A4, NOTE_G4, NOTE_F4, NOTE_E4, NOTE_D4, NOTE_C4, 
  NOTE_D4,
  REST, NOTE_A4, NOTE_G4, NOTE_F4, NOTE_E4, NOTE_D4, NOTE_C4, 
  NOTE_D4,
  
  NOTE_F4, NOTE_G4, NOTE_A4, NOTE_G4, NOTE_A4,
  NOTE_AS4, NOTE_A4, NOTE_G4, NOTE_F4, NOTE_G4,
  NOTE_A4, NOTE_C4, NOTE_C4, NOTE_C4, NOTE_C4,
  NOTE_C4
};

int the_lion_sleeps_tonight_durations[] = {
  4, 4, 8, 4, 8,
  4, 4, 8, 4, 8,
  4, 8, 4, 8, 4,
  1,
  
  4, 4, 8, 4, 8,
  4, 4, 8, 4, 8,
  4, 8, 4, 8, 4,
  2, 8, 16,
  
  8, 16, 8, 16, 8, 16, 8, 16,
  8, 16, 8, 16, 8, 16, 8, 16,
  8, 16, 8, 16, 8, 16, 8, 16,
  8, 16, 8, 16, 8, 16, 8, 16,
  
  8, 16, 8, 16, 8, 16, 8, 16,
  8, 16, 8, 16, 8, 16, 8, 16,
  8, 16, 8, 16, 8, 16, 8, 16,
  8, 16, 8, 16, 8, 16, 8, 16,
  
  4, 4, 8, 4, 8,
  4, 4, 8, 4, 8,
  4, 4, 4, 4,
  1,
  4, 4, 8, 4, 8,
  4, 4, 8, 4, 8,
  4, 4, 4, 4,
  1,
  
  1,
  4, 8, 8, 2,
  4, 8, 4, 8, 4,
  1,
  
  4, 8, 8, 8, 8, 8, 8, 
  1,
  4, 8, 8, 8, 8, 8, 8, 
  1,
  
  4, 4, 8, 4, 8,
  4, 4, 8, 4, 8,
  4, 4, 4, 4,
  1,
  4, 4, 8, 4, 8,
  4, 4, 8, 4, 8,
  4, 4, 4, 4,
  1,
  
  1,
  4, 8, 8, 2,
  4, 8, 4, 8, 4,
  1,
  
  4, 8, 8, 8, 8, 8, 8, 
  1,
  4, 8, 8, 8, 8, 8, 8, 
  1,
  
  4, 4, 8, 4, 8,
  4, 4, 8, 4, 8,
  4, 8, 4, 8, 4,
  1, 
  
  4, 4, 8, 4, 8,
  4, 4, 8, 4, 8,
  4, 4, 4, 4,
  1,
  4, 4, 8, 4, 8,
  4, 4, 8, 4, 8,
  4, 4, 4, 4,
  1,
  
  1,
  4, 8, 8, 2,
  4, 8, 4, 8, 4,
  1,
  
  4, 8, 8, 8, 8, 8, 8, 
  1,
  4, 8, 8, 8, 8, 8, 8, 
  1,
  
  4, 4, 8, 4, 8,
  4, 4, 8, 4, 8,
  4, 8, 4, 8, 4,
  1
};

void play_the_lion_sleeps_tonight(int pin, int note)
{
  //to calculate the note duration, take one second divided by the note type.
  //e.g. quarter note = 1000 / 4, eighth note = 1000/8, etc.
  int duration = 1000 / the_lion_sleeps_tonight_durations[note];
  tone(pin, the_lion_sleeps_tonight_melody[note], duration);

  //to distinguish the notes, set a minimum time between them.
  //the note's duration + 30% seems to work well:
  int pauseBetweenNotes = duration * 1.30;
  delay(pauseBetweenNotes);
  
  //stop the tone playing:
  noTone(pin);
}